REM DIRINDEX 1\6,1\2\7,1\2\8,1\2\9,1\3\10,1\3\11,1\4\12,1\4\13,1\4\14,1\5\15,1\5\16,1\5\17
REM DIRNAME folder01,folder02,folder03,folder04,folder05,folder06,folder07,folder08,folder09,folder10,folder11,folder12,folder13,folder14,folder15,folder16,folder17
TITLE ""
FILE "P2Q_j_1240-1253.mp3" MP3
  TRACK 01 AUDIO
    TITLE "12:cjc040_0464"
    INDEX 01 00:00:00
  TRACK 02 AUDIO
    TITLE "0:"
    INDEX 01 00:01:22
  TRACK 03 AUDIO
    TITLE "13:cjc040_0465"
    INDEX 01 00:01:73
  TRACK 04 AUDIO
    TITLE "0:"
    INDEX 01 00:03:64
  TRACK 05 AUDIO
    TITLE "14:cjc040_0466"
    INDEX 01 00:04:44
  TRACK 06 AUDIO
    TITLE "0:"
    INDEX 01 00:08:03
  TRACK 07 AUDIO
    TITLE "12:cjc040_0467"
    INDEX 01 00:08:60
  TRACK 08 AUDIO
    TITLE "0:"
    INDEX 01 00:10:10
  TRACK 09 AUDIO
    TITLE "13:cjc040_0468"
    INDEX 01 00:10:63
  TRACK 10 AUDIO
    TITLE "0:"
    INDEX 01 00:12:52
  TRACK 11 AUDIO
    TITLE "14:cjc040_0469"
    INDEX 01 00:13:24
  TRACK 12 AUDIO
    TITLE "0:"
    INDEX 01 00:17:70
  TRACK 13 AUDIO
    TITLE "12:cjc040_0470"
    INDEX 01 00:18:48
  TRACK 14 AUDIO
    TITLE "0:"
    INDEX 01 00:20:02
  TRACK 15 AUDIO
    TITLE "13:cjc040_0471"
    INDEX 01 00:20:57
  TRACK 16 AUDIO
    TITLE "0:"
    INDEX 01 00:22:58
  TRACK 17 AUDIO
    TITLE "14:cjc040_0472"
    INDEX 01 00:23:36
  TRACK 18 AUDIO
    TITLE "0:"
    INDEX 01 00:27:32
  TRACK 19 AUDIO
    TITLE "12:cjc040_0473"
    INDEX 01 00:28:12
  TRACK 20 AUDIO
    TITLE "0:"
    INDEX 01 00:29:33
  TRACK 21 AUDIO
    TITLE "13:cjc040_0474"
    INDEX 01 00:30:14
  TRACK 22 AUDIO
    TITLE "0:"
    INDEX 01 00:32:19
  TRACK 23 AUDIO
    TITLE "14:cjc040_0475"
    INDEX 01 00:32:74
  TRACK 24 AUDIO
    TITLE "0:"
    INDEX 01 00:37:44
  TRACK 25 AUDIO
    TITLE "12:cjc040_0476"
    INDEX 01 00:38:24
  TRACK 26 AUDIO
    TITLE "0:"
    INDEX 01 00:39:72
  TRACK 27 AUDIO
    TITLE "13:cjc040_0477"
    INDEX 01 00:40:54
  TRACK 28 AUDIO
    TITLE "0:"
    INDEX 01 00:44:24
  TRACK 29 AUDIO
    TITLE "14:cjc040_0478"
    INDEX 01 00:45:00
  TRACK 30 AUDIO
    TITLE "0:"
    INDEX 01 00:49:63
  TRACK 31 AUDIO
    TITLE "12:cjc040_0479"
    INDEX 01 00:50:41
  TRACK 32 AUDIO
    TITLE "0:"
    INDEX 01 00:51:73
  TRACK 33 AUDIO
    TITLE "13:cjc040_0480"
    INDEX 01 00:52:49
  TRACK 34 AUDIO
    TITLE "0:"
    INDEX 01 00:53:62
  TRACK 35 AUDIO
    TITLE "14:cjc040_0481"
    INDEX 01 00:54:42
  TRACK 36 AUDIO
    TITLE "0:"
    INDEX 01 00:57:45
  TRACK 37 AUDIO
    TITLE "12:cjc040_0482"
    INDEX 01 00:58:20
  TRACK 38 AUDIO
    TITLE "0:"
    INDEX 01 00:59:55
  TRACK 39 AUDIO
    TITLE "13:cjc040_0483"
    INDEX 01 01:00:33
  TRACK 40 AUDIO
    TITLE "0:"
    INDEX 01 01:02:38
  TRACK 41 AUDIO
    TITLE "14:cjc040_0484"
    INDEX 01 01:03:14
  TRACK 42 AUDIO
    TITLE "0:"
    INDEX 01 01:07:70
  TRACK 43 AUDIO
    TITLE "12:cjc040_0485"
    INDEX 01 01:08:48
  TRACK 44 AUDIO
    TITLE "0:"
    INDEX 01 01:10:65
  TRACK 45 AUDIO
    TITLE "13:cjc040_0486"
    INDEX 01 01:11:43
  TRACK 46 AUDIO
    TITLE "0:"
    INDEX 01 01:13:69
  TRACK 47 AUDIO
    TITLE "14:cjc040_0487"
    INDEX 01 01:14:49
  TRACK 48 AUDIO
    TITLE "0:"
    INDEX 01 01:19:48
  TRACK 49 AUDIO
    TITLE "12:cjc040_0488"
    INDEX 01 01:20:28
  TRACK 50 AUDIO
    TITLE "0:"
    INDEX 01 01:21:57
  TRACK 51 AUDIO
    TITLE "13:cjc040_0489"
    INDEX 01 01:22:39
  TRACK 52 AUDIO
    TITLE "0:"
    INDEX 01 01:24:55
  TRACK 53 AUDIO
    TITLE "14:cjc040_0490"
    INDEX 01 01:25:33
  TRACK 54 AUDIO
    TITLE "0:"
    INDEX 01 01:29:60
  TRACK 55 AUDIO
    TITLE "12:cjc040_0491"
    INDEX 01 01:30:38
  TRACK 56 AUDIO
    TITLE "0:"
    INDEX 01 01:31:57
  TRACK 57 AUDIO
    TITLE "13:cjc040_0492"
    INDEX 01 01:32:35
  TRACK 58 AUDIO
    TITLE "0:"
    INDEX 01 01:33:46
  TRACK 59 AUDIO
    TITLE "14:cjc040_0493"
    INDEX 01 01:34:26
  TRACK 60 AUDIO
    TITLE "0:"
    INDEX 01 01:38:57
  TRACK 61 AUDIO
    TITLE "12:cjc040_0494"
    INDEX 01 01:39:35
  TRACK 62 AUDIO
    TITLE "0:"
    INDEX 01 01:41:03
  TRACK 63 AUDIO
    TITLE "13:cjc040_0495"
    INDEX 01 01:41:65
  TRACK 64 AUDIO
    TITLE "0:"
    INDEX 01 01:43:43
  TRACK 65 AUDIO
    TITLE "14:cjc040_0496"
    INDEX 01 01:44:19
  TRACK 66 AUDIO
    TITLE "0:"
    INDEX 01 01:48:07
  TRACK 67 AUDIO
    TITLE "12:cjc040_0497"
    INDEX 01 01:48:60
  TRACK 68 AUDIO
    TITLE "0:"
    INDEX 01 01:50:19
  TRACK 69 AUDIO
    TITLE "13:cjc040_0498"
    INDEX 01 01:50:72
  TRACK 70 AUDIO
    TITLE "0:"
    INDEX 01 01:53:53
  TRACK 71 AUDIO
    TITLE "14:cjc040_0499"
    INDEX 01 01:54:29
  TRACK 72 AUDIO
    TITLE "0:"
    INDEX 01 01:58:36
  TRACK 73 AUDIO
    TITLE "12:cjc040_0500"
    INDEX 01 01:59:12
  TRACK 74 AUDIO
    TITLE "0:"
    INDEX 01 02:01:11
  TRACK 75 AUDIO
    TITLE "13:cjc040_0501"
    INDEX 01 02:01:62
  TRACK 76 AUDIO
    TITLE "0:"
    INDEX 01 02:04:19
  TRACK 77 AUDIO
    TITLE "14:cjc040_0502"
    INDEX 01 02:04:70
  TRACK 78 AUDIO
    TITLE "0:"
    INDEX 01 02:09:13
  TRACK 79 AUDIO
    TITLE "12:cjc040_0503"
    INDEX 01 02:09:71
  TRACK 80 AUDIO
    TITLE "0:"
    INDEX 01 02:12:15
  TRACK 81 AUDIO
    TITLE "13:cjc040_0504"
    INDEX 01 02:12:72
  TRACK 82 AUDIO
    TITLE "0:"
    INDEX 01 02:15:13
  TRACK 83 AUDIO
    TITLE "14:cjc040_0505"
    INDEX 01 02:15:60
  TRACK 84 AUDIO
    TITLE "0:"
    INDEX 01 02:21:24
